<mxfile host="app.diagrams.net" modified="2024-06-13T14:49:44.549Z" agent="Mozilla/5.0 (X11; Linux x86_64; rv:127.0) Gecko/20100101 Firefox/127.0" version="24.5.4" etag="k6yY7QEYh2F86FaVOGxQ" type="github">
  <diagram name="Page-1" id="5jY_ToIYXd8lpSocYMdR">
    <mxGraphModel>
      <root>
        <mxCell id="0" />
        <mxCell id="1" parent="0" />
      </root>
    </mxGraphModel>
  </diagram>
</mxfile>
